<svg xmlns="http://www.w3.org/2000/svg">
    <defs>
        <symbol id="arrow-long-left" viewBox="0 0 20 20" fill="currentColor">
            <path fill-rule="evenodd" d="M18 10a.75.75 0 01-.75.75H4.66l2.1 1.95a.75.75 0 11-1.02 1.1l-3.5-3.25a.75.75 0 010-1.1l3.5-3.25a.75.75 0 111.02 1.1l-2.1 1.95h12.59A.75.75 0 0118 10z" clip-rule="evenodd" />
        </symbol>
        <symbol id="arrow-up-right" viewBox="0 0 20 20" fill="currentColor">
            <path fill-rule="evenodd" d="M5.22 14.78a.75.75 0 001.06 0l7.22-7.22v5.69a.75.75 0 001.5 0v-7.5a.75.75 0 00-.75-.75h-7.5a.75.75 0 000 1.5h5.69l-7.22 7.22a.75.75 0 000 1.06z" clip-rule="evenodd" />
        </symbol>
        <symbol id="computer-desktop" viewBox="0 0 20 20" fill="currentColor">
            <path fill-rule="evenodd" d="M2 4.25A2.25 2.25 0 014.25 2h11.5A2.25 2.25 0 0118 4.25v8.5A2.25 2.25 0 0115.75 15h-3.105a3.501 3.501 0 001.1 1.677A.75.75 0 0113.26 18H6.74a.75.75 0 01-.484-1.323A3.501 3.501 0 007.355 15H4.25A2.25 2.25 0 012 12.75v-8.5zm1.5 0a.75.75 0 01.75-.75h11.5a.75.75 0 01.75.75v7.5a.75.75 0 01-.75.75H4.25a.75.75 0 01-.75-.75v-7.5z" clip-rule="evenodd" />
        </symbol>
        <symbol id="sun" viewBox="0 0 20 20" fill="currentColor">
            <path d="M10 2a.75.75 0 01.75.75v1.5a.75.75 0 01-1.5 0v-1.5A.75.75 0 0110 2zM10 15a.75.75 0 01.75.75v1.5a.75.75 0 01-1.5 0v-1.5A.75.75 0 0110 15zM10 7a3 3 0 100 6 3 3 0 000-6zM15.657 5.404a.75.75 0 10-1.06-1.06l-1.061 1.06a.75.75 0 001.06 1.06l1.06-1.06zM6.464 14.596a.75.75 0 10-1.06-1.06l-1.06 1.06a.75.75 0 001.06 1.06l1.06-1.06zM18 10a.75.75 0 01-.75.75h-1.5a.75.75 0 010-1.5h1.5A.75.75 0 0118 10zM5 10a.75.75 0 01-.75.75h-1.5a.75.75 0 010-1.5h1.5A.75.75 0 015 10zM14.596 15.657a.75.75 0 001.06-1.06l-1.06-1.061a.75.75 0 10-1.06 1.06l1.06 1.06zM5.404 6.464a.75.75 0 001.06-1.06l-1.06-1.06a.75.75 0 10-1.061 1.06l1.06 1.06z" />
        </symbol>
        <symbol id="moon" viewBox="0 0 20 20" fill="currentColor">
            <path fill-rule="evenodd" d="M7.455 2.004a.75.75 0 01.26.77 7 7 0 009.958 7.967.75.75 0 011.067.853A8.5 8.5 0 116.647 1.921a.75.75 0 01.808.083z" clip-rule="evenodd" />
        </symbol>
    </defs>
</svg>
