<svg xmlns="http://www.w3.org/2000/svg">
    <defs>
        <symbol id="arrow-long-left" viewBox="0 0 20 20" fill="currentColor">
            <path fill-rule="evenodd" d="M18 10a.75.75 0 01-.75.75H4.66l2.1 1.95a.75.75 0 11-1.02 1.1l-3.5-3.25a.75.75 0 010-1.1l3.5-3.25a.75.75 0 111.02 1.1l-2.1 1.95h12.59A.75.75 0 0118 10z" clip-rule="evenodd" />
        </symbol>
        <symbol id="arrow-up-right" viewBox="0 0 20 20" fill="currentColor">
            <path fill-rule="evenodd" d="M5.22 14.78a.75.75 0 001.06 0l7.22-7.22v5.69a.75.75 0 001.5 0v-7.5a.75.75 0 00-.75-.75h-7.5a.75.75 0 000 1.5h5.69l-7.22 7.22a.75.75 0 000 1.06z" clip-rule="evenodd" />
        </symbol>
    </defs>
</svg>
