<svg xmlns="http://www.w3.org/2000/svg">
    <defs>
        <symbol id="monitor" viewBox="0 0 24 24" fill="none" stroke="currentColor" stroke-width="2" stroke-linecap="round" stroke-linejoin="round">
            <rect width="20" height="14" x="2" y="3" rx="2"/>
            <line x1="8" x2="16" y1="21" y2="21"/>
            <line x1="12" x2="12" y1="17" y2="21"/>
        </symbol>
        <symbol id="moon-star" viewBox="0 0 24 24" fill="none" stroke="currentColor" stroke-width="2" stroke-linecap="round" stroke-linejoin="round">
            <path d="M12 3a6 6 0 0 0 9 9 9 9 0 1 1-9-9Z"/>
            <path d="M19 3v4"/>
            <path d="M21 5h-4"/>
        </symbol>
        <symbol id="move-left" viewBox="0 0 24 24" fill="none" stroke="currentColor" stroke-width="2" stroke-linecap="round" stroke-linejoin="round">
            <path d="M6 8L2 12L6 16"/>
            <path d="M2 12H22"/>
        </symbol>
        <symbol id="move-right" viewBox="0 0 24 24" fill="none" stroke="currentColor" stroke-width="2" stroke-linecap="round" stroke-linejoin="round">
            <path d="M18 8L22 12L18 16"/>
            <path d="M2 12H22"/>
        </symbol>
        <symbol id="move-up-right" viewBox="0 0 24 24" fill="none" stroke="currentColor" stroke-width="2" stroke-linecap="round" stroke-linejoin="round">
            <path d="M13 5H19V11"/>
            <path d="M19 5L5 19"/>
        </symbol>
        <symbol id="sun-medium" viewBox="0 0 24 24" fill="none" stroke="currentColor" stroke-width="2" stroke-linecap="round" stroke-linejoin="round">
            <circle cx="12" cy="12" r="4"/>
            <path d="M12 3v1"/>
            <path d="M12 20v1"/>
            <path d="M3 12h1"/>
            <path d="M20 12h1"/>
            <path d="m18.364 5.636-.707.707"/>
            <path d="m6.343 17.657-.707.707"/>
            <path d="m5.636 5.636.707.707"/>
            <path d="m17.657 17.657.707.707"/>
        </symbol>
    </defs>
</svg>
